<mxfile host="Electron" agent="Mozilla/5.0 (Windows NT 10.0; Win64; x64) AppleWebKit/537.36 (KHTML, like Gecko) draw.io/25.0.1 Chrome/128.0.6613.186 Electron/32.2.6 Safari/537.36" version="25.0.1">
  <diagram name="Page-1" id="-8aXvP8qVpMDg_G-77dH">
    <mxGraphModel dx="1420" dy="830" grid="1" gridSize="10" guides="1" tooltips="1" connect="1" arrows="1" fold="1" page="1" pageScale="1" pageWidth="1600" pageHeight="900" math="0" shadow="0">
      <root>
        <mxCell id="0" />
        <mxCell id="1" parent="0" />
        <mxCell id="75J9g2hcsQwCrBV9Q44G-21" value="" style="rounded=0;whiteSpace=wrap;html=1;fillColor=none;dashed=1;" parent="1" vertex="1">
          <mxGeometry x="200" y="120" width="600" height="340" as="geometry" />
        </mxCell>
        <mxCell id="75J9g2hcsQwCrBV9Q44G-10" style="edgeStyle=orthogonalEdgeStyle;rounded=0;orthogonalLoop=1;jettySize=auto;html=1;entryX=0;entryY=0.5;entryDx=0;entryDy=0;" parent="1" source="75J9g2hcsQwCrBV9Q44G-1" target="75J9g2hcsQwCrBV9Q44G-2" edge="1">
          <mxGeometry relative="1" as="geometry" />
        </mxCell>
        <mxCell id="75J9g2hcsQwCrBV9Q44G-1" value="Base de Dados&lt;div&gt;(object store)&lt;/div&gt;" style="rounded=0;whiteSpace=wrap;html=1;" parent="1" vertex="1">
          <mxGeometry x="240" y="360" width="120" height="60" as="geometry" />
        </mxCell>
        <mxCell id="75J9g2hcsQwCrBV9Q44G-11" style="edgeStyle=orthogonalEdgeStyle;rounded=0;orthogonalLoop=1;jettySize=auto;html=1;entryX=0.5;entryY=0;entryDx=0;entryDy=0;" parent="1" source="75J9g2hcsQwCrBV9Q44G-2" target="75J9g2hcsQwCrBV9Q44G-3" edge="1">
          <mxGeometry relative="1" as="geometry" />
        </mxCell>
        <mxCell id="75J9g2hcsQwCrBV9Q44G-12" style="edgeStyle=orthogonalEdgeStyle;rounded=0;orthogonalLoop=1;jettySize=auto;html=1;entryX=0;entryY=0.5;entryDx=0;entryDy=0;" parent="1" source="75J9g2hcsQwCrBV9Q44G-2" target="75J9g2hcsQwCrBV9Q44G-4" edge="1">
          <mxGeometry relative="1" as="geometry" />
        </mxCell>
        <mxCell id="75J9g2hcsQwCrBV9Q44G-2" value="Sumarizador&lt;div&gt;(cloud function)&lt;/div&gt;" style="rounded=0;whiteSpace=wrap;html=1;" parent="1" vertex="1">
          <mxGeometry x="440" y="360" width="120" height="60" as="geometry" />
        </mxCell>
        <mxCell id="75J9g2hcsQwCrBV9Q44G-3" value="LLM&lt;div&gt;(gemini)&lt;/div&gt;" style="rounded=0;whiteSpace=wrap;html=1;" parent="1" vertex="1">
          <mxGeometry x="440" y="480" width="120" height="60" as="geometry" />
        </mxCell>
        <mxCell id="75J9g2hcsQwCrBV9Q44G-4" value="Staging de Dados&lt;div&gt;(object store)&lt;/div&gt;" style="rounded=0;whiteSpace=wrap;html=1;" parent="1" vertex="1">
          <mxGeometry x="640" y="360" width="120" height="60" as="geometry" />
        </mxCell>
        <mxCell id="75J9g2hcsQwCrBV9Q44G-9" style="edgeStyle=orthogonalEdgeStyle;rounded=0;orthogonalLoop=1;jettySize=auto;html=1;" parent="1" source="75J9g2hcsQwCrBV9Q44G-5" target="75J9g2hcsQwCrBV9Q44G-6" edge="1">
          <mxGeometry relative="1" as="geometry" />
        </mxCell>
        <mxCell id="75J9g2hcsQwCrBV9Q44G-5" value="Interface&lt;div&gt;(whatsapp)&lt;/div&gt;" style="rounded=0;whiteSpace=wrap;html=1;" parent="1" vertex="1">
          <mxGeometry x="60" y="200" width="120" height="60" as="geometry" />
        </mxCell>
        <mxCell id="75J9g2hcsQwCrBV9Q44G-7" value="Handler&lt;div&gt;(python)&lt;/div&gt;" style="rounded=0;whiteSpace=wrap;html=1;" parent="1" vertex="1">
          <mxGeometry x="500" y="150" width="120" height="60" as="geometry" />
        </mxCell>
        <mxCell id="75J9g2hcsQwCrBV9Q44G-14" style="edgeStyle=orthogonalEdgeStyle;rounded=0;orthogonalLoop=1;jettySize=auto;html=1;entryX=0;entryY=0.5;entryDx=0;entryDy=0;" parent="1" source="75J9g2hcsQwCrBV9Q44G-6" target="75J9g2hcsQwCrBV9Q44G-8" edge="1">
          <mxGeometry relative="1" as="geometry" />
        </mxCell>
        <mxCell id="75J9g2hcsQwCrBV9Q44G-6" value="Servidor&lt;div&gt;(gce)&lt;/div&gt;" style="rounded=0;whiteSpace=wrap;html=1;" parent="1" vertex="1">
          <mxGeometry x="440" y="200" width="120" height="60" as="geometry" />
        </mxCell>
        <mxCell id="75J9g2hcsQwCrBV9Q44G-13" style="edgeStyle=orthogonalEdgeStyle;rounded=0;orthogonalLoop=1;jettySize=auto;html=1;" parent="1" source="75J9g2hcsQwCrBV9Q44G-8" target="75J9g2hcsQwCrBV9Q44G-4" edge="1">
          <mxGeometry relative="1" as="geometry" />
        </mxCell>
        <mxCell id="ddfdWzrI9mq9DNiOkbpB-2" style="edgeStyle=orthogonalEdgeStyle;rounded=0;orthogonalLoop=1;jettySize=auto;html=1;entryX=0.5;entryY=1;entryDx=0;entryDy=0;" edge="1" parent="1" source="75J9g2hcsQwCrBV9Q44G-8" target="ddfdWzrI9mq9DNiOkbpB-1">
          <mxGeometry relative="1" as="geometry" />
        </mxCell>
        <mxCell id="75J9g2hcsQwCrBV9Q44G-8" value="Querier&lt;div&gt;(cloud function)&lt;/div&gt;" style="rounded=0;whiteSpace=wrap;html=1;" parent="1" vertex="1">
          <mxGeometry x="640" y="200" width="120" height="60" as="geometry" />
        </mxCell>
        <mxCell id="75J9g2hcsQwCrBV9Q44G-15" value="api call" style="text;html=1;align=center;verticalAlign=middle;whiteSpace=wrap;rounded=0;" parent="1" vertex="1">
          <mxGeometry x="495" y="431" width="60" height="30" as="geometry" />
        </mxCell>
        <mxCell id="75J9g2hcsQwCrBV9Q44G-16" value="event trigger" style="text;html=1;align=center;verticalAlign=middle;whiteSpace=wrap;rounded=0;" parent="1" vertex="1">
          <mxGeometry x="370" y="390" width="60" height="30" as="geometry" />
        </mxCell>
        <mxCell id="75J9g2hcsQwCrBV9Q44G-17" value="via sdk" style="text;html=1;align=center;verticalAlign=middle;whiteSpace=wrap;rounded=0;" parent="1" vertex="1">
          <mxGeometry x="570" y="390" width="60" height="30" as="geometry" />
        </mxCell>
        <mxCell id="75J9g2hcsQwCrBV9Q44G-18" value="via sdk" style="text;html=1;align=center;verticalAlign=middle;whiteSpace=wrap;rounded=0;" parent="1" vertex="1">
          <mxGeometry x="700" y="290" width="60" height="30" as="geometry" />
        </mxCell>
        <mxCell id="75J9g2hcsQwCrBV9Q44G-19" value="api call" style="text;html=1;align=center;verticalAlign=middle;whiteSpace=wrap;rounded=0;" parent="1" vertex="1">
          <mxGeometry x="570" y="230" width="60" height="30" as="geometry" />
        </mxCell>
        <mxCell id="75J9g2hcsQwCrBV9Q44G-20" value="pooling" style="text;html=1;align=center;verticalAlign=middle;whiteSpace=wrap;rounded=0;" parent="1" vertex="1">
          <mxGeometry x="370" y="230" width="60" height="30" as="geometry" />
        </mxCell>
        <mxCell id="75J9g2hcsQwCrBV9Q44G-22" value="GCP" style="text;html=1;align=center;verticalAlign=middle;whiteSpace=wrap;rounded=0;" parent="1" vertex="1">
          <mxGeometry x="200" y="90" width="60" height="30" as="geometry" />
        </mxCell>
        <mxCell id="ddfdWzrI9mq9DNiOkbpB-1" value="LLM&lt;div&gt;(gpt)&lt;/div&gt;" style="rounded=0;whiteSpace=wrap;html=1;" vertex="1" parent="1">
          <mxGeometry x="640" y="30" width="120" height="60" as="geometry" />
        </mxCell>
      </root>
    </mxGraphModel>
  </diagram>
</mxfile>
